<?xml version="1.0" encoding="UTF-8" standalone="no"?>
<!DOCTYPE svg PUBLIC "-//W3C//DTD SVG 1.1//EN"
 "http://www.w3.org/Graphics/SVG/1.1/DTD/svg11.dtd">
<!-- Generated by graphviz version 2.40.1 (20161225.0304)
 -->
<!-- Title: G Pages: 1 -->
<svg width="259pt" height="288pt"
 viewBox="0.00 0.00 258.58 288.00" xmlns="http://www.w3.org/2000/svg" xmlns:xlink="http://www.w3.org/1999/xlink">
<g id="graph0" class="graph" transform="scale(1 1) rotate(0) translate(4 284)">
<title>G</title>
<polygon fill="#ffffff" stroke="transparent" points="-4,4 -4,-284 254.583,-284 254.583,4 -4,4"/>
<!-- 4593284880 -->
<g id="node1" class="node">
<title>4593284880</title>
<polygon fill="none" stroke="#000000" points="0,-162.5 0,-206.5 250.583,-206.5 250.583,-162.5 0,-162.5"/>
<text text-anchor="middle" x="48.6328" y="-180.3" font-family="Times,serif" font-size="14.00" fill="#000000">flatten: Flatten</text>
<polyline fill="none" stroke="#000000" points="97.2656,-162.5 97.2656,-206.5 "/>
<text text-anchor="middle" x="125.1001" y="-191.3" font-family="Times,serif" font-size="14.00" fill="#000000">input:</text>
<polyline fill="none" stroke="#000000" points="97.2656,-184.5 152.9346,-184.5 "/>
<text text-anchor="middle" x="125.1001" y="-169.3" font-family="Times,serif" font-size="14.00" fill="#000000">output:</text>
<polyline fill="none" stroke="#000000" points="152.9346,-162.5 152.9346,-206.5 "/>
<text text-anchor="middle" x="201.7588" y="-191.3" font-family="Times,serif" font-size="14.00" fill="#000000">(None, 28, 28)</text>
<polyline fill="none" stroke="#000000" points="152.9346,-184.5 250.583,-184.5 "/>
<text text-anchor="middle" x="201.7588" y="-169.3" font-family="Times,serif" font-size="14.00" fill="#000000">(None, 784)</text>
</g>
<!-- 4593285776 -->
<g id="node2" class="node">
<title>4593285776</title>
<polygon fill="none" stroke="#000000" points="10.5068,-81.5 10.5068,-125.5 240.0762,-125.5 240.0762,-81.5 10.5068,-81.5"/>
<text text-anchor="middle" x="55.6328" y="-99.3" font-family="Times,serif" font-size="14.00" fill="#000000">dense: Dense</text>
<polyline fill="none" stroke="#000000" points="100.7588,-81.5 100.7588,-125.5 "/>
<text text-anchor="middle" x="128.5933" y="-110.3" font-family="Times,serif" font-size="14.00" fill="#000000">input:</text>
<polyline fill="none" stroke="#000000" points="100.7588,-103.5 156.4277,-103.5 "/>
<text text-anchor="middle" x="128.5933" y="-88.3" font-family="Times,serif" font-size="14.00" fill="#000000">output:</text>
<polyline fill="none" stroke="#000000" points="156.4277,-81.5 156.4277,-125.5 "/>
<text text-anchor="middle" x="198.252" y="-110.3" font-family="Times,serif" font-size="14.00" fill="#000000">(None, 784)</text>
<polyline fill="none" stroke="#000000" points="156.4277,-103.5 240.0762,-103.5 "/>
<text text-anchor="middle" x="198.252" y="-88.3" font-family="Times,serif" font-size="14.00" fill="#000000">(None, 256)</text>
</g>
<!-- 4593284880&#45;&gt;4593285776 -->
<g id="edge2" class="edge">
<title>4593284880&#45;&gt;4593285776</title>
<path fill="none" stroke="#000000" d="M125.2915,-162.3664C125.2915,-154.1516 125.2915,-144.6579 125.2915,-135.7252"/>
<polygon fill="#000000" stroke="#000000" points="128.7916,-135.6068 125.2915,-125.6068 121.7916,-135.6069 128.7916,-135.6068"/>
</g>
<!-- 4593285552 -->
<g id="node3" class="node">
<title>4593285552</title>
<polygon fill="none" stroke="#000000" points="3.5068,-.5 3.5068,-44.5 247.0762,-44.5 247.0762,-.5 3.5068,-.5"/>
<text text-anchor="middle" x="55.6328" y="-18.3" font-family="Times,serif" font-size="14.00" fill="#000000">dense_1: Dense</text>
<polyline fill="none" stroke="#000000" points="107.7588,-.5 107.7588,-44.5 "/>
<text text-anchor="middle" x="135.5933" y="-29.3" font-family="Times,serif" font-size="14.00" fill="#000000">input:</text>
<polyline fill="none" stroke="#000000" points="107.7588,-22.5 163.4277,-22.5 "/>
<text text-anchor="middle" x="135.5933" y="-7.3" font-family="Times,serif" font-size="14.00" fill="#000000">output:</text>
<polyline fill="none" stroke="#000000" points="163.4277,-.5 163.4277,-44.5 "/>
<text text-anchor="middle" x="205.252" y="-29.3" font-family="Times,serif" font-size="14.00" fill="#000000">(None, 256)</text>
<polyline fill="none" stroke="#000000" points="163.4277,-22.5 247.0762,-22.5 "/>
<text text-anchor="middle" x="205.252" y="-7.3" font-family="Times,serif" font-size="14.00" fill="#000000">(None, 10)</text>
</g>
<!-- 4593285776&#45;&gt;4593285552 -->
<g id="edge3" class="edge">
<title>4593285776&#45;&gt;4593285552</title>
<path fill="none" stroke="#000000" d="M125.2915,-81.3664C125.2915,-73.1516 125.2915,-63.6579 125.2915,-54.7252"/>
<polygon fill="#000000" stroke="#000000" points="128.7916,-54.6068 125.2915,-44.6068 121.7916,-54.6069 128.7916,-54.6068"/>
</g>
<!-- 4593285888 -->
<g id="node4" class="node">
<title>4593285888</title>
<polygon fill="none" stroke="#000000" points="82.2915,-243.5 82.2915,-279.5 168.2915,-279.5 168.2915,-243.5 82.2915,-243.5"/>
<text text-anchor="middle" x="125.2915" y="-257.3" font-family="Times,serif" font-size="14.00" fill="#000000">4593285888</text>
</g>
<!-- 4593285888&#45;&gt;4593284880 -->
<g id="edge1" class="edge">
<title>4593285888&#45;&gt;4593284880</title>
<path fill="none" stroke="#000000" d="M125.2915,-243.2521C125.2915,-235.3888 125.2915,-225.9498 125.2915,-216.9612"/>
<polygon fill="#000000" stroke="#000000" points="128.7916,-216.7376 125.2915,-206.7377 121.7916,-216.7377 128.7916,-216.7376"/>
</g>
</g>
</svg>
