<?xml version="1.0" encoding="UTF-8" standalone="no"?>
<!DOCTYPE svg PUBLIC "-//W3C//DTD SVG 1.1//EN"
 "http://www.w3.org/Graphics/SVG/1.1/DTD/svg11.dtd">
<!-- Generated by graphviz version 2.40.1 (20161225.0304)
 -->
<!-- Title: G Pages: 1 -->
<svg width="394pt" height="531pt"
 viewBox="0.00 0.00 393.93 531.00" xmlns="http://www.w3.org/2000/svg" xmlns:xlink="http://www.w3.org/1999/xlink">
<g id="graph0" class="graph" transform="scale(1 1) rotate(0) translate(4 527)">
<title>G</title>
<polygon fill="#ffffff" stroke="transparent" points="-4,4 -4,-527 389.9277,-527 389.9277,4 -4,4"/>
<!-- 5075033952 -->
<g id="node1" class="node">
<title>5075033952</title>
<polygon fill="none" stroke="#000000" points="42.7793,-405.5 42.7793,-449.5 343.1484,-449.5 343.1484,-405.5 42.7793,-405.5"/>
<text text-anchor="middle" x="105.8052" y="-423.3" font-family="Times,serif" font-size="14.00" fill="#000000">conv2d_1: Conv2D</text>
<polyline fill="none" stroke="#000000" points="168.8311,-405.5 168.8311,-449.5 "/>
<text text-anchor="middle" x="196.6655" y="-434.3" font-family="Times,serif" font-size="14.00" fill="#000000">input:</text>
<polyline fill="none" stroke="#000000" points="168.8311,-427.5 224.5,-427.5 "/>
<text text-anchor="middle" x="196.6655" y="-412.3" font-family="Times,serif" font-size="14.00" fill="#000000">output:</text>
<polyline fill="none" stroke="#000000" points="224.5,-405.5 224.5,-449.5 "/>
<text text-anchor="middle" x="283.8242" y="-434.3" font-family="Times,serif" font-size="14.00" fill="#000000">(None, 28, 28, 1)</text>
<polyline fill="none" stroke="#000000" points="224.5,-427.5 343.1484,-427.5 "/>
<text text-anchor="middle" x="283.8242" y="-412.3" font-family="Times,serif" font-size="14.00" fill="#000000">(None, 26, 26, 32)</text>
</g>
<!-- 5075079576 -->
<g id="node2" class="node">
<title>5075079576</title>
<polygon fill="none" stroke="#000000" points="42.7793,-324.5 42.7793,-368.5 343.1484,-368.5 343.1484,-324.5 42.7793,-324.5"/>
<text text-anchor="middle" x="105.8052" y="-342.3" font-family="Times,serif" font-size="14.00" fill="#000000">conv2d_2: Conv2D</text>
<polyline fill="none" stroke="#000000" points="168.8311,-324.5 168.8311,-368.5 "/>
<text text-anchor="middle" x="196.6655" y="-353.3" font-family="Times,serif" font-size="14.00" fill="#000000">input:</text>
<polyline fill="none" stroke="#000000" points="168.8311,-346.5 224.5,-346.5 "/>
<text text-anchor="middle" x="196.6655" y="-331.3" font-family="Times,serif" font-size="14.00" fill="#000000">output:</text>
<polyline fill="none" stroke="#000000" points="224.5,-324.5 224.5,-368.5 "/>
<text text-anchor="middle" x="283.8242" y="-353.3" font-family="Times,serif" font-size="14.00" fill="#000000">(None, 26, 26, 32)</text>
<polyline fill="none" stroke="#000000" points="224.5,-346.5 343.1484,-346.5 "/>
<text text-anchor="middle" x="283.8242" y="-331.3" font-family="Times,serif" font-size="14.00" fill="#000000">(None, 24, 24, 64)</text>
</g>
<!-- 5075033952&#45;&gt;5075079576 -->
<g id="edge2" class="edge">
<title>5075033952&#45;&gt;5075079576</title>
<path fill="none" stroke="#000000" d="M192.9639,-405.3664C192.9639,-397.1516 192.9639,-387.6579 192.9639,-378.7252"/>
<polygon fill="#000000" stroke="#000000" points="196.464,-378.6068 192.9639,-368.6068 189.464,-378.6069 196.464,-378.6068"/>
</g>
<!-- 5122502160 -->
<g id="node3" class="node">
<title>5122502160</title>
<polygon fill="none" stroke="#000000" points="0,-243.5 0,-287.5 385.9277,-287.5 385.9277,-243.5 0,-243.5"/>
<text text-anchor="middle" x="105.8052" y="-261.3" font-family="Times,serif" font-size="14.00" fill="#000000">max_pooling2d_1: MaxPooling2D</text>
<polyline fill="none" stroke="#000000" points="211.6104,-243.5 211.6104,-287.5 "/>
<text text-anchor="middle" x="239.4448" y="-272.3" font-family="Times,serif" font-size="14.00" fill="#000000">input:</text>
<polyline fill="none" stroke="#000000" points="211.6104,-265.5 267.2793,-265.5 "/>
<text text-anchor="middle" x="239.4448" y="-250.3" font-family="Times,serif" font-size="14.00" fill="#000000">output:</text>
<polyline fill="none" stroke="#000000" points="267.2793,-243.5 267.2793,-287.5 "/>
<text text-anchor="middle" x="326.6035" y="-272.3" font-family="Times,serif" font-size="14.00" fill="#000000">(None, 24, 24, 64)</text>
<polyline fill="none" stroke="#000000" points="267.2793,-265.5 385.9277,-265.5 "/>
<text text-anchor="middle" x="326.6035" y="-250.3" font-family="Times,serif" font-size="14.00" fill="#000000">(None, 12, 12, 64)</text>
</g>
<!-- 5075079576&#45;&gt;5122502160 -->
<g id="edge3" class="edge">
<title>5075079576&#45;&gt;5122502160</title>
<path fill="none" stroke="#000000" d="M192.9639,-324.3664C192.9639,-316.1516 192.9639,-306.6579 192.9639,-297.7252"/>
<polygon fill="#000000" stroke="#000000" points="196.464,-297.6068 192.9639,-287.6068 189.464,-297.6069 196.464,-297.6068"/>
</g>
<!-- 5075080920 -->
<g id="node4" class="node">
<title>5075080920</title>
<polygon fill="none" stroke="#000000" points="50.1724,-162.5 50.1724,-206.5 335.7554,-206.5 335.7554,-162.5 50.1724,-162.5"/>
<text text-anchor="middle" x="105.8052" y="-180.3" font-family="Times,serif" font-size="14.00" fill="#000000">flatten_1: Flatten</text>
<polyline fill="none" stroke="#000000" points="161.438,-162.5 161.438,-206.5 "/>
<text text-anchor="middle" x="189.2725" y="-191.3" font-family="Times,serif" font-size="14.00" fill="#000000">input:</text>
<polyline fill="none" stroke="#000000" points="161.438,-184.5 217.1069,-184.5 "/>
<text text-anchor="middle" x="189.2725" y="-169.3" font-family="Times,serif" font-size="14.00" fill="#000000">output:</text>
<polyline fill="none" stroke="#000000" points="217.1069,-162.5 217.1069,-206.5 "/>
<text text-anchor="middle" x="276.4312" y="-191.3" font-family="Times,serif" font-size="14.00" fill="#000000">(None, 12, 12, 64)</text>
<polyline fill="none" stroke="#000000" points="217.1069,-184.5 335.7554,-184.5 "/>
<text text-anchor="middle" x="276.4312" y="-169.3" font-family="Times,serif" font-size="14.00" fill="#000000">(None, 9216)</text>
</g>
<!-- 5122502160&#45;&gt;5075080920 -->
<g id="edge4" class="edge">
<title>5122502160&#45;&gt;5075080920</title>
<path fill="none" stroke="#000000" d="M192.9639,-243.3664C192.9639,-235.1516 192.9639,-225.6579 192.9639,-216.7252"/>
<polygon fill="#000000" stroke="#000000" points="196.464,-216.6068 192.9639,-206.6068 189.464,-216.6069 196.464,-216.6068"/>
</g>
<!-- 5075080528 -->
<g id="node5" class="node">
<title>5075080528</title>
<polygon fill="none" stroke="#000000" points="67.6792,-81.5 67.6792,-125.5 318.2485,-125.5 318.2485,-81.5 67.6792,-81.5"/>
<text text-anchor="middle" x="119.8052" y="-99.3" font-family="Times,serif" font-size="14.00" fill="#000000">dense_1: Dense</text>
<polyline fill="none" stroke="#000000" points="171.9312,-81.5 171.9312,-125.5 "/>
<text text-anchor="middle" x="199.7656" y="-110.3" font-family="Times,serif" font-size="14.00" fill="#000000">input:</text>
<polyline fill="none" stroke="#000000" points="171.9312,-103.5 227.6001,-103.5 "/>
<text text-anchor="middle" x="199.7656" y="-88.3" font-family="Times,serif" font-size="14.00" fill="#000000">output:</text>
<polyline fill="none" stroke="#000000" points="227.6001,-81.5 227.6001,-125.5 "/>
<text text-anchor="middle" x="272.9243" y="-110.3" font-family="Times,serif" font-size="14.00" fill="#000000">(None, 9216)</text>
<polyline fill="none" stroke="#000000" points="227.6001,-103.5 318.2485,-103.5 "/>
<text text-anchor="middle" x="272.9243" y="-88.3" font-family="Times,serif" font-size="14.00" fill="#000000">(None, 128)</text>
</g>
<!-- 5075080920&#45;&gt;5075080528 -->
<g id="edge5" class="edge">
<title>5075080920&#45;&gt;5075080528</title>
<path fill="none" stroke="#000000" d="M192.9639,-162.3664C192.9639,-154.1516 192.9639,-144.6579 192.9639,-135.7252"/>
<polygon fill="#000000" stroke="#000000" points="196.464,-135.6068 192.9639,-125.6068 189.464,-135.6069 196.464,-135.6068"/>
</g>
<!-- 5122655680 -->
<g id="node6" class="node">
<title>5122655680</title>
<polygon fill="none" stroke="#000000" points="71.1792,-.5 71.1792,-44.5 314.7485,-44.5 314.7485,-.5 71.1792,-.5"/>
<text text-anchor="middle" x="123.3052" y="-18.3" font-family="Times,serif" font-size="14.00" fill="#000000">dense_2: Dense</text>
<polyline fill="none" stroke="#000000" points="175.4312,-.5 175.4312,-44.5 "/>
<text text-anchor="middle" x="203.2656" y="-29.3" font-family="Times,serif" font-size="14.00" fill="#000000">input:</text>
<polyline fill="none" stroke="#000000" points="175.4312,-22.5 231.1001,-22.5 "/>
<text text-anchor="middle" x="203.2656" y="-7.3" font-family="Times,serif" font-size="14.00" fill="#000000">output:</text>
<polyline fill="none" stroke="#000000" points="231.1001,-.5 231.1001,-44.5 "/>
<text text-anchor="middle" x="272.9243" y="-29.3" font-family="Times,serif" font-size="14.00" fill="#000000">(None, 128)</text>
<polyline fill="none" stroke="#000000" points="231.1001,-22.5 314.7485,-22.5 "/>
<text text-anchor="middle" x="272.9243" y="-7.3" font-family="Times,serif" font-size="14.00" fill="#000000">(None, 10)</text>
</g>
<!-- 5075080528&#45;&gt;5122655680 -->
<g id="edge6" class="edge">
<title>5075080528&#45;&gt;5122655680</title>
<path fill="none" stroke="#000000" d="M192.9639,-81.3664C192.9639,-73.1516 192.9639,-63.6579 192.9639,-54.7252"/>
<polygon fill="#000000" stroke="#000000" points="196.464,-54.6068 192.9639,-44.6068 189.464,-54.6069 196.464,-54.6068"/>
</g>
<!-- 5075080024 -->
<g id="node7" class="node">
<title>5075080024</title>
<polygon fill="none" stroke="#000000" points="149.9639,-486.5 149.9639,-522.5 235.9639,-522.5 235.9639,-486.5 149.9639,-486.5"/>
<text text-anchor="middle" x="192.9639" y="-500.3" font-family="Times,serif" font-size="14.00" fill="#000000">5075080024</text>
</g>
<!-- 5075080024&#45;&gt;5075033952 -->
<g id="edge1" class="edge">
<title>5075080024&#45;&gt;5075033952</title>
<path fill="none" stroke="#000000" d="M192.9639,-486.2521C192.9639,-478.3888 192.9639,-468.9498 192.9639,-459.9612"/>
<polygon fill="#000000" stroke="#000000" points="196.464,-459.7376 192.9639,-449.7377 189.464,-459.7377 196.464,-459.7376"/>
</g>
</g>
</svg>
